<svg width="18" height="18" viewBox="0 0 18 18" fill="none" xmlns="http://www.w3.org/2000/svg">
<g clip-path="url(#clip0_3053_154)">
<path d="M4.3255 11.0468L3.71411 13.3292L1.47949 13.3765C0.811662 12.1378 0.432861 10.7206 0.432861 9.21463C0.432861 7.75833 0.787031 6.38501 1.41482 5.17578H1.4153L3.40474 5.54052L4.27624 7.51802C4.09383 8.04979 3.99442 8.62063 3.99442 9.21463C3.99449 9.8593 4.11126 10.477 4.3255 11.0468Z" fill="#FBBB00"/>
<path d="M17.8439 7.57373C17.9447 8.10498 17.9973 8.65363 17.9973 9.21435C17.9973 9.8431 17.9312 10.4564 17.8053 11.048C17.3778 13.0612 16.2607 14.819 14.7132 16.063L14.7127 16.0625L12.2069 15.9347L11.8523 13.7208C12.8791 13.1186 13.6816 12.1762 14.1043 11.048H9.4082V7.57373H14.1728H17.8439Z" fill="#518EF8"/>
<path d="M14.7124 16.0628L14.7128 16.0633C13.2078 17.273 11.296 17.9968 9.21482 17.9968C5.87035 17.9968 2.96258 16.1275 1.47925 13.3766L4.32526 11.0469C5.06691 13.0262 6.97632 14.4353 9.21482 14.4353C10.177 14.4353 11.0784 14.1752 11.8519 13.7211L14.7124 16.0628Z" fill="#28B446"/>
<path d="M14.8207 2.45444L11.9756 4.78364C11.1751 4.28326 10.2288 3.99421 9.21503 3.99421C6.92586 3.99421 4.98074 5.46787 4.27625 7.5182L1.41528 5.17596H1.41479C2.87641 2.35794 5.82085 0.432617 9.21503 0.432617C11.3459 0.432617 13.2997 1.19166 14.8207 2.45444Z" fill="#F14336"/>
</g>
<defs>
<clipPath id="clip0_3053_154">
<rect width="17.5644" height="17.5644" fill="white" transform="translate(0.432861 0.432617)"/>
</clipPath>
</defs>
</svg>
